<svg width="75" height="45" viewBox="0 0 75 45" fill="none" xmlns="http://www.w3.org/2000/svg">
<path d="M20.945 16.1414C20.945 17.056 21.0438 17.7976 21.2169 18.3414C21.4146 18.8852 21.6618 19.4784 22.0079 20.1211C22.1315 20.3189 22.1809 20.5166 22.1809 20.6897C22.1809 20.9368 22.0326 21.184 21.7112 21.4312L20.1539 22.4694C19.9315 22.6177 19.709 22.6919 19.5113 22.6919C19.2641 22.6919 19.0169 22.5683 18.7697 22.3458C18.4236 21.975 18.127 21.5795 17.8798 21.184C17.6326 20.7638 17.3854 20.2942 17.1135 19.7256C15.1855 21.9998 12.763 23.1368 9.8462 23.1368C7.76982 23.1368 6.11366 22.5436 4.90244 21.3571C3.69121 20.1706 3.07324 18.5886 3.07324 16.611C3.07324 14.5099 3.81481 12.8044 5.32266 11.519C6.8305 10.2336 8.83273 9.5909 11.3788 9.5909C12.2192 9.5909 13.0844 9.66506 13.999 9.78865C14.9136 9.91225 15.8529 10.11 16.8416 10.3325V8.52799C16.8416 6.64936 16.4461 5.33927 15.6798 4.57298C14.8888 3.8067 13.554 3.43592 11.6507 3.43592C10.7855 3.43592 9.89564 3.53479 8.98104 3.75726C8.06644 3.97973 7.17657 4.25164 6.31141 4.5977C5.91591 4.77073 5.61928 4.86961 5.44625 4.91905C5.27322 4.96848 5.14962 4.9932 5.05075 4.9932C4.70468 4.9932 4.53165 4.74601 4.53165 4.22692V3.0157C4.53165 2.6202 4.58109 2.32357 4.70468 2.15054C4.82828 1.97751 5.05075 1.80447 5.39681 1.63144C6.26197 1.1865 7.30016 0.815721 8.51138 0.519095C9.72261 0.197751 11.008 0.0494376 12.3675 0.0494376C15.3091 0.0494376 17.4596 0.716846 18.8439 2.05166C20.2034 3.38648 20.8955 5.41342 20.8955 8.13249V16.1414H20.945ZM10.9091 19.8987C11.7248 19.8987 12.5653 19.7503 13.4551 19.4537C14.345 19.1571 15.136 18.6133 15.8034 17.8717C16.1989 17.4021 16.4956 16.883 16.6439 16.2897C16.7922 15.6965 16.8911 14.9796 16.8911 14.1392V13.101C16.1742 12.9279 15.4079 12.7796 14.6169 12.6808C13.8259 12.5819 13.0596 12.5324 12.2934 12.5324C10.6372 12.5324 9.42598 12.8538 8.61026 13.5212C7.79454 14.1886 7.39904 15.1279 7.39904 16.3639C7.39904 17.5256 7.69566 18.3908 8.31363 18.9841C8.90688 19.602 9.77204 19.8987 10.9091 19.8987ZM30.7583 22.5683C30.3134 22.5683 30.0168 22.4941 29.819 22.3211C29.6213 22.1728 29.4482 21.8267 29.2999 21.3571L23.491 2.24941C23.3427 1.75504 23.2685 1.43369 23.2685 1.26066C23.2685 0.865159 23.4663 0.642689 23.8618 0.642689H26.2842C26.7539 0.642689 27.0752 0.716846 27.2483 0.889878C27.446 1.03819 27.5943 1.38425 27.7426 1.85391L31.8954 18.2178L35.7515 1.85391C35.8751 1.35954 36.0234 1.03819 36.2212 0.889878C36.4189 0.741565 36.765 0.642689 37.2099 0.642689H39.1874C39.6571 0.642689 39.9784 0.716846 40.1762 0.889878C40.3739 1.03819 40.547 1.38425 40.6459 1.85391L44.5514 18.4155L48.8278 1.85391C48.9761 1.35954 49.1491 1.03819 49.3222 0.889878C49.5199 0.741565 49.8413 0.642689 50.2862 0.642689H52.585C52.9805 0.642689 53.203 0.84044 53.203 1.26066C53.203 1.38425 53.1783 1.50785 53.1536 1.65616C53.1289 1.80447 53.0794 2.00222 52.9805 2.27413L47.0233 21.3818C46.875 21.8762 46.702 22.1975 46.5042 22.3458C46.3065 22.4941 45.9851 22.593 45.5649 22.593H43.4391C42.9694 22.593 42.6481 22.5188 42.4503 22.3458C42.2526 22.1728 42.0795 21.8514 41.9807 21.3571L38.1493 5.41342L34.3426 21.3323C34.219 21.8267 34.0706 22.1481 33.8729 22.3211C33.6751 22.4941 33.3291 22.5683 32.8841 22.5683H30.7583ZM62.522 23.2357C61.2366 23.2357 59.9513 23.0874 58.7153 22.7908C57.4794 22.4941 56.5153 22.1728 55.8726 21.802C55.4771 21.5795 55.2052 21.3323 55.1064 21.1099C55.0075 20.8874 54.9581 20.6402 54.9581 20.4177V19.1571C54.9581 18.638 55.1558 18.3908 55.5266 18.3908C55.6749 18.3908 55.8232 18.4155 55.9715 18.465C56.1198 18.5144 56.3423 18.6133 56.5895 18.7122C57.4299 19.0829 58.3445 19.3796 59.3086 19.5773C60.2973 19.7751 61.2614 19.8739 62.2501 19.8739C63.8074 19.8739 65.0186 19.602 65.8591 19.0582C66.6995 18.5144 67.1444 17.7234 67.1444 16.7099C67.1444 16.0178 66.922 15.4493 66.477 14.9796C66.0321 14.5099 65.1916 14.0897 63.9804 13.6942L60.3962 12.5819C58.5917 12.0133 57.2569 11.1729 56.4412 10.0606C55.6255 8.97293 55.2052 7.76171 55.2052 6.47633C55.2052 5.43814 55.4277 4.52354 55.8726 3.73254C56.3176 2.94154 56.9108 2.24941 57.6524 1.7056C58.394 1.13707 59.2344 0.716846 60.2232 0.42022C61.2119 0.123594 62.2501 0 63.3377 0C63.8815 0 64.4501 0.0247188 64.9939 0.0988753C65.5624 0.173032 66.0815 0.271907 66.6006 0.370782C67.095 0.494376 67.5647 0.617971 68.0096 0.766283C68.4545 0.914596 68.8006 1.06291 69.0478 1.21122C69.3938 1.40897 69.641 1.60672 69.7893 1.82919C69.9377 2.02694 70.0118 2.29885 70.0118 2.64491V3.8067C70.0118 4.32579 69.8141 4.5977 69.4433 4.5977C69.2455 4.5977 68.9242 4.49883 68.504 4.30107C67.095 3.65839 65.513 3.33704 63.758 3.33704C62.349 3.33704 61.2366 3.55951 60.4704 4.02917C59.7041 4.49883 59.3086 5.21567 59.3086 6.22914C59.3086 6.92127 59.5558 7.51452 60.0501 7.98418C60.5445 8.45384 61.4591 8.9235 62.7692 9.34372L66.2793 10.4561C68.059 11.0246 69.3444 11.8156 70.1107 12.8291C70.877 13.8425 71.2478 15.0043 71.2478 16.2897C71.2478 17.3526 71.0253 18.3166 70.6051 19.1571C70.1601 19.9975 69.5669 20.7391 68.8006 21.3323C68.0343 21.9503 67.1197 22.3953 66.0568 22.7166C64.9445 23.0627 63.7827 23.2357 62.522 23.2357Z" fill="#252F3E"/>
<path fill-rule="evenodd" clip-rule="evenodd" d="M67.1937 35.2489C59.0612 41.2556 47.2456 44.4443 37.0861 44.4443C22.8481 44.4443 10.019 39.1792 0.329259 30.4288C-0.437025 29.7366 0.255102 28.7973 1.1697 29.3411C11.6505 35.422 24.5784 39.1051 37.9513 39.1051C46.9737 39.1051 56.8859 37.2264 66.0072 33.3703C67.3667 32.7523 68.5285 34.2602 67.1937 35.2489Z" fill="#FF9900"/>
<path fill-rule="evenodd" clip-rule="evenodd" d="M70.58 31.3928C69.5418 30.058 63.7082 30.7501 61.0633 31.0714C60.2723 31.1703 60.1487 30.4782 60.8655 29.9591C65.5127 26.6962 73.1508 27.6355 74.0407 28.7232C74.9305 29.8355 73.7935 37.4736 69.443 41.132C68.7756 41.7005 68.1329 41.4039 68.4295 40.6623C69.4182 38.2152 71.6182 32.7029 70.58 31.3928Z" fill="#FF9900"/>
</svg>
