<svg width="64" height="64" viewBox="0 0 64 64" fill="none" xmlns="http://www.w3.org/2000/svg">
<g clip-path="url(#clip0_169_1122)">
<path d="M32.1248 46.4101C24.1788 46.4101 17.7128 39.9451 17.7128 32.0101C17.7128 24.0751 24.1798 17.5861 32.1248 17.5861C38.6848 17.5861 44.2308 21.9921 45.9688 27.9991H51.5448C49.6888 18.9771 41.6878 12.1721 32.1248 12.1721C21.1928 12.1721 12.2988 21.0661 12.2988 31.9991C12.2988 42.9321 21.1928 51.8251 32.1248 51.8251C41.6878 51.8251 49.6888 45.0221 51.5448 35.9991H45.9598C44.2218 42.0051 38.6758 46.3991 32.1158 46.3991" fill="#435363"/>
<path d="M22.4097 41.714C23.6838 42.9927 25.1981 44.007 26.8655 44.6986C28.5329 45.3902 30.3205 45.7455 32.1257 45.744V40C31.0748 40.001 30.0342 39.7945 29.0634 39.3922C28.0926 38.99 27.2108 38.3999 26.4687 37.656L22.4097 41.714Z" fill="#435363"/>
<path d="M18.3799 31.9999C18.3799 33.9669 18.7999 35.8379 19.5459 37.5319L24.8019 35.2199C24.3544 34.2054 24.1238 33.1087 24.1249 31.9999C24.1249 29.8782 24.9677 27.8433 26.468 26.3431C27.9683 24.8428 30.0032 23.9999 32.1249 23.9999V18.2539C24.5449 18.2529 18.3799 24.4199 18.3799 31.9999Z" fill="#F38B00"/>
<path d="M37.1079 19.1799L35.0229 24.5369C36.7179 25.1976 38.138 26.4148 39.0499 27.9889H45.2739C44.0459 23.9639 41.0079 20.7119 37.1079 19.1799Z" fill="#435363"/>
<path d="M35.0259 39.4501L37.1089 44.8071C39.0458 44.0485 40.7864 42.8622 42.2005 41.3366C43.6147 39.8111 44.666 37.9858 45.2759 35.9971H39.0519C38.1459 37.5621 36.7269 38.7971 35.0249 39.4501" fill="#F38B00"/>
<path d="M6.69402 39.6881L6.43602 38.7801L6.42102 38.7241L6.21302 37.8741L6.17502 37.6991L6.02202 36.9611L5.96402 36.6311L5.86402 36.0381L5.79402 35.5381C5.63532 34.3681 5.55514 33.1888 5.55402 32.0081H0.124023C0.123989 33.2959 0.201798 34.5826 0.357023 35.8611L0.367023 35.9431L0.510023 36.9731L0.557022 37.2571L0.707024 38.0971L0.807022 38.5401L0.951023 39.2051L1.09402 39.7851L1.22602 40.3021L1.50002 41.2671H1.50202C1.87702 42.5071 2.32202 43.7171 2.83702 44.8871L7.81202 42.6991C7.38402 41.7291 7.01402 40.7241 6.71202 39.6951L6.69402 39.6881Z" fill="#435363"/>
<path d="M32.1248 58.572C24.7988 58.572 18.1578 55.589 13.3468 50.777L9.50183 54.622C15.2928 60.414 23.2898 64 32.1248 64C48.4428 64 61.9048 51.785 63.8748 36H58.3968C56.4598 48.76 45.4168 58.572 32.1248 58.572ZM32.1248 5.42704C37.8528 5.42047 43.4278 7.27564 48.0098 10.713L51.2618 6.35304C45.7392 2.21872 39.0235 -0.0107124 32.1248 3.87024e-05C18.5468 3.87024e-05 6.94483 8.45804 2.29883 20.393L7.36283 22.363C11.2278 12.46 20.8598 5.42704 32.1248 5.42704Z" fill="#F38B00"/>
<path d="M58.3972 27.9999H63.8752C63.3029 23.4014 61.7322 18.9836 59.2732 15.0559L54.6602 17.9339C56.5822 20.9978 57.8542 24.424 58.3972 27.9999Z" fill="#435363"/>
<path d="M52.2252 28.0001H57.7222C56.2882 18.7831 49.9752 11.1621 41.5172 7.86011L39.5542 12.9081C45.9862 15.4081 50.8522 21.0861 52.2242 28.0001" fill="#F38B00"/>
<path d="M32.1249 11.506V6.09302C21.1519 6.09302 11.7529 12.95 7.98291 22.605L13.0269 24.568C16.0099 16.93 23.4459 11.506 32.1249 11.506Z" fill="#435363"/>
<path d="M11.6332 32H6.22021C6.22021 42.886 12.9702 52.22 22.5062 56.047L24.5062 51.023C16.9732 47.994 11.6332 40.61 11.6332 32Z" fill="#F38B00"/>
<path d="M32.125 52.4801V57.8941C45.05 57.8941 55.793 48.3791 57.722 35.9871H52.224C50.36 45.3801 42.057 52.4801 32.125 52.4801Z" fill="#435363"/>
</g>
<defs>
<clipPath id="clip0_169_1122">
<rect width="64" height="64" fill="white"/>
</clipPath>
</defs>
</svg>
