<svg width="99" height="56" viewBox="0 0 99 56" fill="none" xmlns="http://www.w3.org/2000/svg">
<path fill-rule="evenodd" clip-rule="evenodd" d="M85.4032 20.9605C85.9941 16.3675 82.5571 12.7602 80.4256 11.0469C77.9691 13.8868 77.5875 21.3298 81.4412 24.4634C79.2904 26.3737 74.7588 28.1051 70.1184 28.1051H13.6335C13.1825 32.949 14.0328 37.4097 15.975 41.2275L16.6176 42.4031C17.0244 43.0932 17.469 43.7602 17.9493 44.4013C20.2716 44.5505 22.4127 44.6017 24.3716 44.5585H24.3723C28.2218 44.4738 31.3627 44.0189 33.7432 43.1941C33.9115 43.1417 34.0936 43.1569 34.2509 43.2364C34.4082 43.3158 34.5285 43.4534 34.5862 43.6199C34.6439 43.7864 34.6346 43.9689 34.5602 44.1286C34.4859 44.2884 34.3522 44.413 34.1877 44.4761C33.8708 44.5863 33.5409 44.6888 33.2002 44.7864H33.199C31.3246 45.326 29.3145 45.6817 26.7212 45.8417C26.8754 45.8444 26.5609 45.8648 26.5601 45.8648C26.4715 45.8706 26.3608 45.8833 26.2722 45.8879C25.2515 45.9458 24.1499 45.9573 23.0237 45.9573C21.7918 45.9573 20.5788 45.9342 19.2224 45.8648L19.1839 45.8879C23.8863 51.1778 31.249 54.3504 40.4735 54.3504C59.9955 54.3504 76.5542 45.6964 83.8868 26.2681C89.0888 26.8019 94.0884 25.4752 96.3625 21.0357C92.7401 18.9454 88.0816 19.6118 85.3993 20.9601" fill="#22A0C8"/>
<path fill-rule="evenodd" clip-rule="evenodd" d="M85.4031 20.9605C85.994 16.3675 82.557 12.7602 80.4255 11.0469C77.969 13.8868 77.5874 21.3298 81.4411 24.4634C79.2903 26.3737 74.7587 28.1051 70.1183 28.1051H16.9783C16.7478 35.5234 19.5006 41.1543 24.3711 44.5586H24.3722C28.2217 44.4738 31.3626 44.0189 33.7431 43.1941C33.9114 43.1417 34.0935 43.1569 34.2508 43.2364C34.4081 43.3158 34.5284 43.4534 34.5861 43.6199C34.6438 43.7864 34.6345 43.9689 34.5601 44.1287C34.4858 44.2884 34.3521 44.413 34.1876 44.4761C33.8707 44.5863 33.5408 44.6888 33.2001 44.7864H33.1989C31.3245 45.326 29.1417 45.728 26.5484 45.888C26.5477 45.888 26.4856 45.8282 26.4848 45.8282C33.1287 49.2363 42.7622 49.2201 53.8071 44.9814C66.1914 40.2235 77.7162 31.1594 85.7604 20.7921C85.6415 20.8457 85.5236 20.9017 85.4069 20.9601" fill="#37B1D9"/>
<path fill-rule="evenodd" clip-rule="evenodd" d="M13.7388 33.9909C14.0857 36.5857 14.8488 39.0151 15.9743 41.228L16.6169 42.4036C17.0237 43.0936 17.4682 43.7607 17.9486 44.4017C20.2713 44.5509 22.412 44.6022 24.3716 44.559C28.2211 44.4742 31.3621 44.0194 33.7426 43.1945C33.9108 43.1422 34.0929 43.1573 34.2502 43.2368C34.4075 43.3163 34.5278 43.4538 34.5855 43.6203C34.6432 43.7868 34.6339 43.9693 34.5595 44.1291C34.4852 44.2889 34.3516 44.4135 34.187 44.4765C33.8701 44.5867 33.5402 44.6893 33.1995 44.7868H33.1983C31.3239 45.3264 29.1527 45.7053 26.5594 45.866C26.4708 45.8714 26.315 45.8726 26.2252 45.8776C25.2054 45.9346 24.1149 45.9701 22.9883 45.9701C21.7054 45.9725 20.4228 45.9416 19.1415 45.8776C23.844 51.1678 31.2522 54.3477 40.4767 54.3477C57.1895 54.3477 71.73 48.0041 80.1697 33.9878H13.7388" fill="#1B81A5"/>
<path fill-rule="evenodd" clip-rule="evenodd" d="M17.4863 33.9907C18.4854 38.5467 20.8859 42.1236 24.3719 44.5588C28.2213 44.474 31.3623 44.0192 33.7428 43.1944C33.9111 43.142 34.0932 43.1572 34.2505 43.2366C34.4078 43.3161 34.528 43.4537 34.5858 43.6202C34.6435 43.7867 34.6342 43.9691 34.5598 44.1289C34.4854 44.2887 34.3518 44.4133 34.1872 44.4763C33.8704 44.5866 33.5405 44.6891 33.1997 44.7866H33.1986C31.3242 45.3263 29.1071 45.7051 26.5134 45.8659C33.157 49.2732 42.7626 49.2243 53.8029 44.9821C60.4842 42.415 66.9145 38.5937 72.6835 33.9911H17.4863" fill="#1D91B4"/>
<path fill-rule="evenodd" clip-rule="evenodd" d="M21.2993 19.096H28.9381V26.7344H21.2993V19.096ZM21.9353 19.7328H22.5381V26.0945H21.9314V19.7328H21.9353ZM23.0685 19.7328H23.6956V26.0945H23.0685V19.7328ZM24.2256 19.7328H24.8527V26.0945H24.2256V19.7328ZM25.3835 19.7328H26.0102V26.0945H25.3835V19.7328ZM26.541 19.7328H27.1677V26.0945H26.5414V19.7328H26.541ZM27.6981 19.7328H28.3013V26.0945H27.6977V19.7328H27.6981ZM30.1125 10.2825H37.752V17.9208H30.1125V10.2825ZM30.7493 10.9192H31.3517V17.2845H30.7493V10.9196V10.9192ZM31.8825 10.9192H32.5092V17.2845H31.8836V10.9196L31.8825 10.9192ZM33.0396 10.9192H33.6663V17.2845H33.0399V10.9196L33.0396 10.9192ZM34.1971 10.9192H34.8238V17.2845H34.1971V10.9196V10.9192ZM35.3545 10.9192H35.9817V17.2845H35.3545V10.9196V10.9192ZM36.5116 10.9192H37.1153V17.2845H36.5116V10.9196V10.9192Z" fill="#23A3C2"/>
<path fill-rule="evenodd" clip-rule="evenodd" d="M30.1133 19.0962H37.7528V26.7345H30.1133V19.0962ZM30.75 19.7329H31.3525V26.0947H30.75V19.7329ZM31.8832 19.7329H32.51V26.0947H31.884V19.7329H31.8832ZM33.0403 19.7329H33.6671V26.0947H33.0403V19.7329ZM34.1978 19.7329H34.8246V26.0947H34.1978V19.7329ZM35.3553 19.7329H35.9824V26.0947H35.3553V19.7329ZM36.5124 19.7329H37.116V26.0947H36.5124V19.7329Z" fill="#34BBDE"/>
<path fill-rule="evenodd" clip-rule="evenodd" d="M38.9272 19.0962H46.566V26.7345H38.9272V19.0962ZM39.5632 19.7329H40.1657V26.0947H39.5632V19.7329ZM40.6964 19.7329H41.3232V26.0947H40.6964V19.7329ZM41.8539 19.7329H42.4807V26.0947H41.8539V19.7329ZM43.0114 19.7329H43.6381V26.0947H43.0157V19.7329H43.0114ZM44.1685 19.7329H44.796V26.0947H44.1685V19.7329ZM45.326 19.7329H45.9288V26.0947H45.326V19.7329Z" fill="#23A3C2"/>
<path fill-rule="evenodd" clip-rule="evenodd" d="M38.9272 10.2825H46.566V17.9208H38.9272V10.2825ZM39.5632 10.9192H40.1657V17.2845H39.5632V10.9196V10.9192ZM40.6964 10.9192H41.3232V17.2845H40.6964V10.9196V10.9192ZM41.8539 10.9192H42.4807V17.2845H41.8539V10.9196V10.9192ZM43.0114 10.9192H43.6381V17.2845H43.0157V10.9196L43.0114 10.9192ZM44.1685 10.9192H44.796V17.2845H44.1685V10.9196V10.9192ZM45.326 10.9192H45.9288V17.2845H45.326V10.9196V10.9192ZM47.7404 19.096H55.3792V26.7344H47.7412V19.096H47.7404ZM48.3772 19.7328H48.9796V26.0945H48.3733V19.7328H48.3772ZM49.5104 19.7328H50.1371V26.0945H49.5104V19.7328ZM50.6675 19.7328H51.2942V26.0945H50.6675V19.7328ZM51.825 19.7328H52.4521V26.0945H51.825V19.7328ZM52.9825 19.7328H53.6096V26.0945H52.9825V19.7328ZM54.14 19.7328H54.7428V26.0945H54.14V19.7328Z" fill="#34BBDE"/>
<path fill-rule="evenodd" clip-rule="evenodd" d="M47.7412 10.2825H55.3799V17.9208H47.7412V10.2825ZM48.378 10.9192H48.9804V17.2844H48.378V10.9196V10.9192ZM49.5112 10.9192H50.1379V17.2844H49.5112V10.9196V10.9192ZM50.6683 10.9192H51.295V17.2844H50.6683V10.9196V10.9192ZM51.8258 10.9192H52.4529V17.2844H51.8258V10.9196V10.9192ZM52.9833 10.9192H53.6104V17.2844H52.9833V10.9196V10.9192ZM54.1407 10.9192H54.7436V17.2844H54.1407V10.9196V10.9192Z" fill="#23A3C2"/>
<path fill-rule="evenodd" clip-rule="evenodd" d="M47.7412 1.4646H55.3799V9.1041H47.7412V1.4646ZM48.378 2.10058H48.9804V8.46658H48.378V2.10444V2.10058ZM49.5112 2.10058H50.1379V8.46658H49.5112V2.10444V2.10058ZM50.6683 2.10058H51.295V8.46658H50.6683V2.10444V2.10058ZM51.8258 2.10058H52.4529V8.46658H51.8258V2.10444V2.10058ZM52.9833 2.10058H53.6104V8.46658H52.9833V2.10444V2.10058ZM54.1407 2.10058H54.7436V8.46658H54.1407V2.10444V2.10058Z" fill="#34BBDE"/>
<path fill-rule="evenodd" clip-rule="evenodd" d="M56.5542 19.0962H64.1929V26.7345H56.5542V19.0962ZM57.1902 19.7329H57.7934V26.0947H57.1906V19.7329H57.1902ZM58.3234 19.7329H58.9505V26.0947H58.3238V19.7329H58.3234ZM59.4813 19.7329H60.1084V26.0947H59.4813V19.7329ZM60.6384 19.7329H61.2655V26.0947H60.6384V19.7329ZM61.7962 19.7329H62.423V26.0947H61.7962V19.7329ZM62.9533 19.7329H63.5562V26.0947H62.9533V19.7329Z" fill="#23A3C2"/>
<path fill-rule="evenodd" clip-rule="evenodd" d="M37.2738 39.1196C37.553 39.1158 37.8301 39.1676 38.0891 39.2719C38.348 39.3761 38.5837 39.5308 38.7824 39.7269C38.9811 39.923 39.1389 40.1566 39.2465 40.4142C39.3542 40.6718 39.4096 40.9482 39.4096 41.2274C39.4095 41.5066 39.354 41.7829 39.2462 42.0405C39.1385 42.298 38.9806 42.5316 38.7819 42.7276C38.5831 42.9236 38.3474 43.0782 38.0883 43.1824C37.8293 43.2866 37.5522 43.3382 37.2731 43.3344C36.7191 43.3268 36.1904 43.1014 35.8013 42.7069C35.4123 42.3124 35.1942 41.7806 35.1943 41.2266C35.1944 40.6726 35.4127 40.1409 35.8019 39.7465C36.191 39.3522 36.7198 39.127 37.2738 39.1196Z" fill="#D3ECEC"/>
<path fill-rule="evenodd" clip-rule="evenodd" d="M37.274 39.7173C37.4608 39.7171 37.646 39.7518 37.8202 39.8195C37.7031 39.8874 37.6117 39.992 37.5601 40.1171C37.5084 40.2422 37.4994 40.3808 37.5344 40.5115C37.5694 40.6422 37.6465 40.7578 37.7538 40.8403C37.861 40.9228 37.9924 40.9677 38.1278 40.9681C38.361 40.9681 38.5633 40.839 38.6682 40.6482C38.7923 40.9472 38.8169 41.2782 38.7385 41.5923C38.6601 41.9065 38.4827 42.187 38.2325 42.3926C37.9824 42.5981 37.6728 42.7178 37.3494 42.7339C37.026 42.75 36.7061 42.6616 36.4368 42.4819C36.1675 42.3021 35.9631 42.0406 35.8539 41.7358C35.7447 41.431 35.7364 41.0992 35.8302 40.7893C35.9241 40.4794 36.1151 40.208 36.3751 40.015C36.6351 39.822 36.9502 39.7178 37.274 39.7177V39.7173ZM0 34.7524H98.0289C95.8947 34.2113 91.2759 33.4797 92.0375 30.6821C88.1561 35.1733 78.7964 33.8331 76.434 31.6188C73.8037 35.4339 58.49 33.9835 57.4219 31.0113C54.1241 34.8812 43.9056 34.8812 40.6077 31.0113C39.5389 33.9792 24.2256 35.4339 21.5949 31.6184C19.2329 33.8331 9.87739 35.1733 5.99212 30.6825C6.75375 33.4797 2.13536 34.2113 0 34.7528" fill="#364548"/>
</svg>
