<svg width="70" height="56" viewBox="0 0 70 56" fill="none" xmlns="http://www.w3.org/2000/svg">
<path d="M44.5432 15.474L46.785 15.513L52.8756 9.45516L53.1696 6.88818C48.3292 2.60597 41.9604 0 34.9899 0C22.3697 0 11.7171 8.54103 8.56201 20.111C9.22829 19.649 10.649 19.994 10.649 19.994L22.8224 18.002C22.8224 18.002 23.4495 16.969 23.763 17.0333C26.3761 14.1901 29.9813 12.4457 33.8433 12.1559C37.7052 11.8661 41.5328 13.0529 44.5451 15.474H44.5432Z" fill="#EA4335"/>
<path d="M61.4559 20.1324C60.0565 15.0115 57.1852 10.4079 53.194 6.88623L44.5676 15.4662C46.338 16.8814 47.7667 18.6735 48.7485 20.7106C49.7303 22.7477 50.2403 24.9779 50.2408 27.237V28.7514C54.4384 28.7514 57.8442 32.1487 57.8442 36.314C57.8442 40.4792 54.4286 43.8766 50.2408 43.8766H35.03L33.5073 45.3969V54.4758L35.03 55.9825H50.2408C55.4793 55.9686 60.4991 53.8917 64.202 50.2061C67.905 46.5205 69.9896 41.5263 70 36.3159C69.9921 29.6188 66.598 23.6857 61.4363 20.1324H61.4559Z" fill="#4285F4"/>
<path d="M19.781 55.9962H34.9879V43.8883H19.781C18.7011 43.8888 17.6338 43.6581 16.6514 43.2119L14.4566 43.8805L8.36603 49.9383L7.83301 51.9849C11.2598 54.6018 15.4626 56.014 19.783 56.0001L19.781 55.9962Z" fill="#34A853"/>
<path d="M19.7807 16.6494C14.5371 16.6577 9.51061 18.7331 5.8028 22.421C2.09499 26.1089 0.00829198 31.1084 9.62563e-10 36.3238C-3.01398e-05 39.3607 0.707785 42.3564 2.06785 45.0754C3.42792 47.7944 5.40321 50.1629 7.83861 51.9947L16.657 43.2237C15.3213 42.6259 14.1875 41.6571 13.3921 40.4337C12.5967 39.2104 12.1735 37.7846 12.1734 36.3277C12.1734 32.1527 15.589 28.7651 19.7768 28.7651C21.241 28.7677 22.6735 29.1896 23.903 29.9804C25.1325 30.7713 26.1071 31.8976 26.7101 33.2247L35.5285 24.4537C31.911 19.7173 26.2005 16.6572 19.7729 16.6572L19.7807 16.6494Z" fill="#FBBC05"/>
</svg>
