<svg width="64" height="64" viewBox="0 0 64 64" fill="none" xmlns="http://www.w3.org/2000/svg">
<g clip-path="url(#clip0_418_2136)">
<path d="M64 32C64 49.674 49.674 64 32 64C14.326 64 0 49.674 0 32C0 14.326 14.328 0 32 0C49.672 0 64 14.328 64 32" fill="#1A1918"/>
<path d="M32.54 19.548L40.82 39.986L28.312 30.133L32.54 19.548ZM47.24 44.695L34.512 14.04C34.148 13.156 33.412 12.688 32.539 12.688C31.666 12.688 30.875 13.156 30.511 14.04L16.52 47.664H21.303L26.837 33.801L43.352 47.144C44.016 47.681 44.496 47.924 45.119 47.924C46.367 47.924 47.457 46.988 47.457 45.638C47.457 45.418 47.379 45.068 47.239 44.694L47.24 44.695Z" fill="white"/>
</g>
<defs>
<clipPath id="clip0_418_2136">
<rect width="64" height="64" fill="white"/>
</clipPath>
</defs>
</svg>
