<svg width="65" height="63" viewBox="0 0 65 63" fill="none" xmlns="http://www.w3.org/2000/svg">
<path d="M31.8005 0.0034899C31.2282 0.0371133 30.6684 0.18538 30.1545 0.43949L7.86452 11.0715C6.70052 11.6255 5.85452 12.6795 5.56452 13.9355L0.108516 37.7975C-0.151484 38.9175 0.0585157 40.0915 0.708516 41.0515C0.784516 41.1675 0.864516 41.2795 0.948516 41.3875L16.3485 60.5355C17.1625 61.5355 18.3845 62.1095 19.6725 62.1035H44.3725C45.6645 62.1055 46.8885 61.5035 47.7005 60.5175L63.0925 41.3655C63.9005 40.3655 64.2025 39.0455 63.8925 37.7935L58.4005 13.9115C58.1105 12.6555 57.2605 11.6015 56.1005 11.0475L33.8465 0.44149C33.2052 0.125207 32.495 -0.0253771 31.7805 0.0034899H31.8005Z" fill="#326CE5"/>
<path d="M32.0046 8.1355C31.2366 8.1895 30.6546 8.8475 30.6946 9.6155V9.9915C30.7306 10.4175 30.7946 10.8395 30.8786 11.2575C31.0013 12.0579 31.0455 12.8685 31.0106 13.6775C30.9346 13.9435 30.7826 14.1835 30.5746 14.3675L30.5446 14.9315C29.7346 14.9995 28.9306 15.1235 28.1386 15.3035C24.8066 16.0555 21.7726 17.7835 19.4306 20.2735L18.9506 19.9335C18.6866 20.0135 18.4026 19.9835 18.1606 19.8535C17.5115 19.373 16.9106 18.8305 16.3666 18.2335C16.0934 17.907 15.8016 17.5965 15.4926 17.3035L15.1966 17.0675C14.9326 16.8555 14.6086 16.7335 14.2706 16.7175C14.0689 16.7068 13.8675 16.744 13.683 16.826C13.4984 16.9081 13.3358 17.0326 13.2086 17.1895C12.7566 17.8235 12.9046 18.7015 13.5366 19.1555L13.8126 19.3755C14.1679 19.6119 14.5365 19.8276 14.9166 20.0215C15.6246 20.4155 16.2926 20.8775 16.9126 21.4215C17.0712 21.6477 17.1634 21.9137 17.1786 22.1895L17.6146 22.5895C15.2606 26.1215 14.2946 30.3995 14.8986 34.6015L14.3386 34.7615C14.1926 34.9935 13.9986 35.1915 13.7666 35.3375C12.9853 35.5461 12.1855 35.6781 11.3786 35.7315C10.9504 35.7402 10.523 35.7736 10.0986 35.8315L9.74463 35.9115H9.70463C9.45896 35.9456 9.22758 36.0472 9.03624 36.205C8.8449 36.3628 8.70111 36.5706 8.62088 36.8053C8.54065 37.04 8.52712 37.2923 8.58181 37.5342C8.6365 37.7762 8.75725 37.9981 8.93063 38.1755C9.10562 38.3519 9.32624 38.4763 9.56782 38.5345C9.8094 38.5928 10.0624 38.5828 10.2986 38.5055H10.3246L10.6846 38.4655C11.0906 38.3455 11.4906 38.1975 11.8806 38.0295C12.6306 37.7295 13.4086 37.4995 14.2046 37.3495C14.4806 37.3655 14.7446 37.4595 14.9686 37.6195L15.5686 37.5195C16.8686 41.5535 19.6006 44.9715 23.2486 47.1255L23.0046 47.6355C23.1166 47.8695 23.1586 48.1295 23.1246 48.3875C22.7946 49.1515 22.3906 49.8835 21.9186 50.5715C21.6597 50.9128 21.4206 51.2687 21.2026 51.6375L21.0326 51.9975C20.9093 52.2115 20.8475 52.4553 20.854 52.7022C20.8605 52.9491 20.9352 53.1894 21.0697 53.3965C21.2042 53.6036 21.3933 53.7696 21.6162 53.876C21.8391 53.9824 22.087 54.0251 22.3326 53.9995C22.5788 53.9718 22.8125 53.8764 23.0078 53.7239C23.203 53.5714 23.3522 53.3677 23.4386 53.1355L23.6046 52.7955C23.7566 52.3955 23.8846 51.9875 23.9886 51.5755C24.3426 50.7015 24.5346 49.7635 25.0186 49.1835C25.1768 49.0348 25.3762 48.9372 25.5906 48.9035L25.8906 48.3575C29.8451 49.8775 34.2208 49.8881 38.1826 48.3875L38.4486 48.8975C38.7206 48.9375 38.9646 49.0875 39.1286 49.3075C39.5046 50.0235 39.8086 50.7735 40.0406 51.5475C40.1464 51.9619 40.2759 52.3699 40.4286 52.7695L40.5946 53.1095C40.6819 53.3408 40.8315 53.5434 41.0268 53.695C41.2221 53.8465 41.4556 53.9411 41.7013 53.9682C41.947 53.9954 42.1955 53.954 42.4192 53.8487C42.6428 53.7433 42.833 53.5782 42.9686 53.3715C43.1029 53.1636 43.177 52.9225 43.1827 52.675C43.1883 52.4275 43.1253 52.1833 43.0006 51.9695L42.8266 51.6095C42.6086 51.242 42.3695 50.8874 42.1106 50.5475C41.6506 49.8835 41.2546 49.1755 40.9106 48.4335C40.8785 48.2978 40.874 48.1571 40.8974 48.0197C40.9207 47.8823 40.9715 47.7509 41.0466 47.6335C40.9613 47.4591 40.8871 47.2794 40.8246 47.0955C44.4646 44.9255 47.1846 41.4955 48.4706 37.4555L49.0386 37.5555C49.2426 37.3695 49.5106 37.2715 49.7846 37.2795C50.5786 37.4315 51.3566 37.6795 52.1086 37.9595C52.4986 38.1395 52.8986 38.2915 53.3046 38.4195C53.4006 38.4455 53.5406 38.4675 53.6486 38.4935H53.6746C53.9107 38.5697 54.1633 38.5789 54.4043 38.5201C54.6452 38.4613 54.8652 38.3367 55.0395 38.1603C55.2139 37.9838 55.3359 37.7624 55.3919 37.5208C55.4478 37.2791 55.4356 37.0266 55.3566 36.7915C55.2758 36.5566 55.1312 36.3487 54.9391 36.1912C54.747 36.0337 54.5148 35.9327 54.2686 35.8995L53.8806 35.8075C53.4562 35.7496 53.0289 35.7162 52.6006 35.7075C51.7926 35.6555 50.9926 35.5235 50.2126 35.3135C49.9726 35.1795 49.7726 34.9795 49.6366 34.7375L49.0966 34.5775C49.6724 30.3775 48.686 26.1122 46.3246 22.5915L46.7966 22.1555C46.7766 21.8815 46.8666 21.6095 47.0446 21.3995C47.6586 20.8715 48.3246 20.4055 49.0246 20.0075C49.4047 19.8135 49.7733 19.5978 50.1286 19.3615L50.4206 19.1255C50.6356 18.9921 50.8084 18.8005 50.9191 18.5729C51.0297 18.3453 51.0737 18.0911 51.0458 17.8396C51.018 17.5881 50.9195 17.3496 50.7618 17.1517C50.6041 16.9539 50.3936 16.8047 50.1546 16.7215C49.9159 16.6384 49.6584 16.6245 49.4121 16.6815C49.1658 16.7385 48.9406 16.864 48.7626 17.0435L48.4666 17.2795C48.1578 17.5725 47.8659 17.8831 47.5926 18.2095C47.0646 18.8135 46.4806 19.3635 45.8466 19.8555C45.5908 19.9597 45.3109 19.9901 45.0386 19.9435L44.5326 20.3035C41.6126 17.2435 37.6786 15.3435 33.4626 14.9635C33.4626 14.7635 33.4366 14.4635 33.4326 14.3695C33.2066 14.2135 33.0486 13.9755 32.9966 13.7055C32.9689 12.8978 33.0198 12.0893 33.1486 11.2915C33.2346 10.8715 33.2946 10.4515 33.3326 10.0255V9.6255C33.3726 8.8575 32.7926 8.1995 32.0226 8.1455L32.0046 8.1355ZM30.3366 18.4675L29.9366 25.4535H29.9066C29.8866 25.8855 29.6326 26.2535 29.2426 26.4615C28.8526 26.6695 28.3906 26.6075 28.0426 26.3535L22.3126 22.2935C24.1364 20.5022 26.4244 19.256 28.9186 18.6955C29.3866 18.5955 29.8586 18.5195 30.3326 18.4675H30.3366ZM33.6726 18.4675C36.6826 18.8415 39.4846 20.1935 41.6526 22.3155L35.9766 26.3495C35.6266 26.6295 35.1466 26.6855 34.7406 26.4935C34.3346 26.3015 34.0746 25.8935 34.0686 25.4455L33.6726 18.4675ZM20.2326 24.9215L25.4726 29.5975V29.6275C25.7986 29.9115 25.9406 30.3535 25.8446 30.7755C25.7486 31.1975 25.4246 31.5315 25.0106 31.6455V31.6655L18.2866 33.5995C17.9539 30.5701 18.6393 27.5162 20.2346 24.9195L20.2326 24.9215ZM43.7386 24.9215C45.3306 27.5115 46.0346 30.5495 45.7426 33.5755L39.0086 31.6355V31.6095C38.5886 31.4955 38.2686 31.1615 38.1746 30.7395C38.0806 30.3175 38.2206 29.8795 38.5466 29.5915L43.7466 24.9375L43.7386 24.9215ZM30.9306 29.9615H33.0746L34.3846 31.6255L33.9086 33.7055L31.9826 34.6315L30.0526 33.7055L29.5986 31.6255L30.9306 29.9615ZM37.7986 35.6375C37.8886 35.6275 37.9986 35.6275 38.0686 35.6375L45.0026 36.8075C44.0026 39.6875 42.0286 42.1475 39.4526 43.7935L36.7726 37.3055C36.6989 37.1314 36.6681 36.9422 36.6828 36.7538C36.6975 36.5653 36.7573 36.3832 36.8571 36.2226C36.9568 36.0621 37.0937 35.9279 37.2562 35.8313C37.4186 35.7347 37.6019 35.6785 37.7906 35.6675L37.7986 35.6375ZM26.1526 35.6675C26.5446 35.6735 26.9066 35.8755 27.1206 36.2035C27.3346 36.5315 27.3686 36.9435 27.2146 37.3035V37.3295L24.5506 43.7655C22.0006 42.1315 20.0646 39.7015 19.0346 36.8515L25.9086 35.6855C25.9846 35.6775 26.0626 35.6775 26.1406 35.6855L26.1526 35.6675ZM31.9606 38.4675C32.1791 38.4606 32.3953 38.5146 32.5849 38.6233C32.7745 38.7321 32.9302 38.8914 33.0346 39.0835H33.0606L36.4486 45.1975L35.0946 45.5975C32.6026 46.1675 30.0006 46.0335 27.5786 45.2095L30.9786 39.0955C31.1846 38.7355 31.5646 38.5155 31.9786 38.5055L31.9606 38.4675Z" fill="white" stroke="white" stroke-width="0.11"/>
</svg>
